<svg xmlns="http://www.w3.org/2000/svg" xmlns:xlink="http://www.w3.org/1999/xlink" width="363" zoomAndPan="magnify" viewBox="0 0 272.25 91.5" height="122" preserveAspectRatio="xMidYMid meet" version="1.0"><defs><g/></defs><g fill="#911876" fill-opacity="1"><g transform="translate(24.385932, 51.545689)"><g><path d="M 22.953125 -11.453125 L 22.953125 -17.921875 L 26.25 -17.921875 L 26.25 0 L 22.953125 0 L 22.953125 -8.171875 L 4.84375 -8.171875 L 4.84375 -0.03125 L 1.53125 -0.03125 L 1.53125 -17.921875 L 4.84375 -17.921875 L 4.84375 -11.453125 Z M 22.953125 -11.453125 "/></g></g></g><g fill="#911876" fill-opacity="1"><g transform="translate(52.204809, 51.545689)"><g><path d="M 14.3125 -17.921875 L 18.3125 -17.921875 L 31.109375 0 L 27.0625 0 L 24.53125 -3.5625 L 8.0625 -3.5625 L 5.53125 0 L 1.53125 0 Z M 10.421875 -6.859375 L 22.171875 -6.859375 L 16.3125 -15.0625 Z M 10.421875 -6.859375 "/></g></g></g><g fill="#911876" fill-opacity="1"><g transform="translate(84.890712, 51.545689)"><g><path d="M 16.0625 -3.296875 C 17.832031 -3.296875 19.503906 -3.503906 21.078125 -3.921875 C 22.660156 -4.347656 24 -4.9375 25.09375 -5.6875 L 26.96875 -3 C 25.601562 -2.039062 23.96875 -1.300781 22.0625 -0.78125 C 20.15625 -0.257812 18.15625 0 16.0625 0 C 14.03125 0 12.132812 -0.226562 10.375 -0.6875 C 8.613281 -1.15625 7.070312 -1.789062 5.75 -2.59375 C 4.425781 -3.40625 3.390625 -4.351562 2.640625 -5.4375 C 1.898438 -6.519531 1.53125 -7.695312 1.53125 -8.96875 C 1.53125 -10.226562 1.898438 -11.398438 2.640625 -12.484375 C 3.390625 -13.566406 4.425781 -14.515625 5.75 -15.328125 C 7.070312 -16.140625 8.613281 -16.773438 10.375 -17.234375 C 12.132812 -17.691406 14.03125 -17.921875 16.0625 -17.921875 C 18.15625 -17.921875 20.15625 -17.660156 22.0625 -17.140625 C 23.96875 -16.617188 25.601562 -15.890625 26.96875 -14.953125 L 25.078125 -12.234375 C 23.984375 -13.003906 22.648438 -13.59375 21.078125 -14 C 19.503906 -14.414062 17.832031 -14.625 16.0625 -14.625 C 14.726562 -14.625 13.398438 -14.484375 12.078125 -14.203125 C 10.753906 -13.929688 9.546875 -13.546875 8.453125 -13.046875 C 7.359375 -12.546875 6.484375 -11.945312 5.828125 -11.25 C 5.171875 -10.5625 4.84375 -9.800781 4.84375 -8.96875 C 4.84375 -8.125 5.171875 -7.359375 5.828125 -6.671875 C 6.484375 -5.984375 7.359375 -5.382812 8.453125 -4.875 C 9.546875 -4.375 10.753906 -3.984375 12.078125 -3.703125 C 13.398438 -3.429688 14.726562 -3.296875 16.0625 -3.296875 Z M 16.0625 -3.296875 "/></g></g></g><g fill="#911876" fill-opacity="1"><g transform="translate(113.426834, 51.545689)"><g><path d="M 26.359375 -17.921875 L 14.078125 -10.0625 L 26.65625 0 L 21.359375 0 L 11.140625 -8.171875 L 4.84375 -4.125 L 4.84375 0 L 1.53125 0 L 1.53125 -17.921875 L 4.84375 -17.921875 L 4.84375 -8.046875 L 20.234375 -17.921875 Z M 26.359375 -17.921875 "/></g></g></g><g fill="#911876" fill-opacity="1"><g transform="translate(141.631655, 51.545689)"><g/></g></g><g fill="#911876" fill-opacity="1"><g transform="translate(148.829726, 51.545689)"><g/></g></g><g fill="#911876" fill-opacity="1"><g transform="translate(156.027796, 51.545689)"><g/></g></g><g fill="#911876" fill-opacity="1"><g transform="translate(163.227319, 51.545689)"><g><path d="M 22.953125 -11.453125 L 22.953125 -17.921875 L 26.25 -17.921875 L 26.25 0 L 22.953125 0 L 22.953125 -8.171875 L 4.84375 -8.171875 L 4.84375 -0.03125 L 1.53125 -0.03125 L 1.53125 -17.921875 L 4.84375 -17.921875 L 4.84375 -11.453125 Z M 22.953125 -11.453125 "/></g></g></g><g fill="#911876" fill-opacity="1"><g transform="translate(191.046196, 51.545689)"><g><path d="M 1.53125 0 L 1.53125 -17.90625 L 26.09375 -17.90625 L 26.09375 -14.59375 L 4.84375 -14.59375 L 4.84375 -11.546875 L 20.890625 -11.546875 L 20.890625 -8.25 L 4.84375 -8.25 L 4.84375 -3.296875 L 26.09375 -3.296875 L 26.09375 0 Z M 1.53125 0 "/></g></g></g><g fill="#911876" fill-opacity="1"><g transform="translate(218.685759, 51.545689)"><g><path d="M 26.09375 -12.3125 C 26.09375 -10.9375 25.769531 -9.835938 25.125 -9.015625 C 24.476562 -8.191406 23.585938 -7.578125 22.453125 -7.171875 C 21.328125 -6.773438 20.03125 -6.5 18.5625 -6.34375 L 26.609375 0 L 21.25 0 L 13.4375 -6.171875 L 4.84375 -6.171875 L 4.84375 0 L 1.53125 0 L 1.53125 -17.921875 L 14.234375 -17.921875 C 14.867188 -17.921875 15.597656 -17.90625 16.421875 -17.875 C 17.253906 -17.851562 18.113281 -17.796875 19 -17.703125 C 19.882812 -17.609375 20.75 -17.445312 21.59375 -17.21875 C 22.445312 -16.988281 23.207031 -16.664062 23.875 -16.25 C 24.550781 -15.84375 25.085938 -15.320312 25.484375 -14.6875 C 25.890625 -14.050781 26.09375 -13.257812 26.09375 -12.3125 Z M 13.15625 -9.46875 C 14.988281 -9.46875 16.472656 -9.523438 17.609375 -9.640625 C 18.742188 -9.753906 19.617188 -9.90625 20.234375 -10.09375 C 20.859375 -10.28125 21.296875 -10.492188 21.546875 -10.734375 C 21.796875 -10.984375 21.941406 -11.242188 21.984375 -11.515625 C 22.023438 -11.796875 22.046875 -12.0625 22.046875 -12.3125 C 22.046875 -12.78125 21.84375 -13.15625 21.4375 -13.4375 C 21.039062 -13.726562 20.519531 -13.953125 19.875 -14.109375 C 19.226562 -14.273438 18.535156 -14.394531 17.796875 -14.46875 C 17.066406 -14.539062 16.363281 -14.582031 15.6875 -14.59375 C 15.007812 -14.613281 14.441406 -14.625 13.984375 -14.625 L 4.84375 -14.625 L 4.84375 -9.46875 Z M 13.15625 -9.46875 "/></g></g></g><g fill="#ff2871" fill-opacity="1"><g transform="translate(142.092094, 64.537102)"><g><path d="M 10.421875 0 L 10.421875 -12.515625 L 1.53125 -12.515625 L 1.53125 -15.265625 L 8.53125 -40.859375 L 13.640625 -40.859375 L 13.640625 -15.53125 L 17.21875 -15.53125 L 17.21875 -12.515625 L 13.640625 -12.515625 L 13.640625 0 Z M 4.859375 -15.53125 L 10.421875 -15.53125 L 10.78125 -26.609375 L 11.1875 -37.796875 L 10.21875 -37.796875 L 7.609375 -26.609375 Z M 4.859375 -15.53125 "/></g></g></g></svg>